<svg width="27" height="42" viewBox="0 0 27 42" fill="none" xmlns="http://www.w3.org/2000/svg">
<path d="M1.68641 5.0053L2.51617 6.93394C2.51617 6.93394 4.3258 15.131 9.97266 26.3132C15.6195 37.4953 17.2928 39.9684 17.2928 39.9684C17.2928 39.9684 19.8945 40.7815 20.985 39.2201C22.0754 37.6585 22.2536 36.7062 21.9392 35.3891C21.6244 34.0719 13.5715 7.5425 12.5556 5.96225L11.7353 5.42236C11.7353 5.42236 10.9688 4.42752 11.4555 3.65637C11.5049 3.57827 11.5116 3.4806 11.4751 3.39586L11.1064 2.53882C11.0896 2.49977 11.0598 2.46828 11.0218 2.44969L9.94849 1.92039C9.83502 1.86435 9.70348 1.85669 9.58453 1.89949L1.82854 4.67879C1.69585 4.72628 1.63074 4.87589 1.68641 5.0053Z" fill="#1D1A3A"/>
<path d="M11.3 4.11744C11.2959 4.15955 11.294 4.20148 11.2944 4.24343C11.2941 4.20169 11.2959 4.15955 11.3 4.11744Z" fill="#1D1A3A"/>
<path d="M11.3686 3.83351C11.3564 3.86462 11.3456 3.89612 11.3367 3.92804C11.3459 3.89624 11.3565 3.86483 11.3686 3.83351Z" fill="#1D1A3A"/>
<path d="M11.3399 4.58932C11.3322 4.5588 11.3263 4.52778 11.3204 4.49675C11.3264 4.52799 11.3324 4.55871 11.3399 4.58932Z" fill="#A4D8E4"/>
<path d="M11.3024 4.37419C11.3055 4.4027 11.3093 4.43064 11.3136 4.4584C11.3095 4.43055 11.3055 4.4027 11.3024 4.37419Z" fill="#A4D8E4"/>
<path d="M11.3681 3.83256C11.3737 3.81795 11.3789 3.8028 11.3856 3.78825C11.3792 3.80292 11.3739 3.81765 11.3681 3.83256Z" fill="#A4D8E4"/>
<path d="M11.3 4.11744C11.2959 4.15955 11.294 4.20148 11.2944 4.24343C11.2941 4.20169 11.2959 4.15955 11.3 4.11744Z" fill="#1D1A3A"/>
<path d="M11.3686 3.83351C11.3564 3.86462 11.3456 3.89612 11.3367 3.92804C11.3459 3.89624 11.3565 3.86483 11.3686 3.83351Z" fill="#1D1A3A"/>
<path d="M11.3681 3.83256C11.3737 3.81795 11.3789 3.8028 11.3856 3.78825C11.3792 3.80292 11.3739 3.81765 11.3681 3.83256Z" fill="#1D1A3A"/>
<path d="M11.3024 4.37419C11.3055 4.4027 11.3093 4.43064 11.3136 4.4584C11.3095 4.43055 11.3055 4.4027 11.3024 4.37419Z" fill="#1D1A3A"/>
<path d="M11.3399 4.58932C11.3322 4.5588 11.3263 4.52778 11.3204 4.49675C11.3264 4.52799 11.3324 4.55871 11.3399 4.58932Z" fill="#1D1A3A"/>
<path d="M11.6865 5.35278C11.6882 5.35554 11.69 5.358 11.692 5.36087C11.6902 5.35841 11.688 5.35563 11.6865 5.35278Z" fill="#1D1A3A"/>
<path d="M11.3874 4.75353C11.3888 4.75738 11.3899 4.76134 11.3914 4.76542C11.3899 4.76134 11.3885 4.75748 11.3874 4.75353Z" fill="#1D1A3A"/>
<path d="M11.7146 5.39478C11.7181 5.39948 11.7215 5.40448 11.7241 5.40811C11.7216 5.40469 11.7178 5.39936 11.7146 5.39478Z" fill="#1D1A3A"/>
<path d="M11.731 5.41528C11.734 5.41913 11.7359 5.4218 11.7359 5.4218C11.7359 5.4218 11.7327 5.4175 11.731 5.41528Z" fill="#1D1A3A"/>
<path d="M11.6863 5.35368C11.6152 5.2479 11.4818 5.03057 11.3908 4.76451C11.4825 5.03202 11.6155 5.24903 11.6863 5.35368Z" fill="#1D1A3A"/>
<path d="M11.3394 4.58935C11.3529 4.64583 11.369 4.70044 11.3871 4.75344C11.3692 4.70035 11.3528 4.64562 11.3394 4.58935Z" fill="#1D1A3A"/>
<path d="M11.6919 5.36011C11.7011 5.37353 11.7083 5.38437 11.7148 5.39324C11.7084 5.38407 11.7011 5.37353 11.6919 5.36011Z" fill="#1D1A3A"/>
<path d="M11.7241 5.40796C11.7279 5.41314 11.7294 5.41539 11.7312 5.41776C11.7293 5.41517 11.7271 5.41191 11.7241 5.40796Z" fill="#1D1A3A"/>
<path d="M10.2768 4.51903L8.85737 5.15802C8.8528 5.15999 9.5831 7.15383 9.68678 7.57447C8.56487 7.44026 4.55636 8.77861 3.81418 9.18998C3.81119 9.17502 2.91545 6.77604 2.91545 6.77604L2.51567 6.9345C2.51567 6.9345 4.32529 15.1316 9.97215 26.3137C15.619 37.4959 17.2923 39.969 17.2923 39.969C17.2923 39.969 19.894 40.782 20.9845 39.2206C22.0749 37.659 22.2531 36.7068 21.9387 35.3897C21.6239 34.0725 13.571 7.54305 12.5551 5.9628L11.7348 5.42291C11.7348 5.42291 11.4509 5.0527 11.339 4.58934L10.2768 4.51903Z" fill="#1D1A3A"/>
<path d="M10.9512 8.43433C10.4184 8.41569 9.91408 8.46057 9.38676 8.52916C7.33474 8.79634 5.18729 9.21364 3.48608 10.4433C4.54169 13.8684 6.55366 19.5434 9.97232 26.3131C12.2132 30.7504 13.8277 33.8154 14.9606 35.8994C14.9606 35.8994 15.0721 35.9548 15.1338 35.9884C16.0946 36.5131 17.4072 36.0784 18.3369 35.6691C19.4643 35.1724 20.1498 34.2963 20.2507 33.0986C20.254 33.0605 20.2489 33.0219 20.2372 32.9855L12.3961 8.88398C12.2653 8.39674 11.1542 8.44153 10.9512 8.43433Z" fill="white"/>
<path d="M18.0617 35.6186C16.7517 36.1822 15.8333 36.1576 15.1034 35.8676C15.0305 35.8389 14.8896 35.7643 14.8896 35.7643C13.5287 33.2568 11.8739 30.0747 9.96895 26.3033C6.62496 19.6814 4.62284 14.1065 3.52535 10.564C3.95145 10.2665 4.42971 10.0026 4.94921 9.77913C6.34547 9.17841 7.91457 8.91763 9.26538 8.74166C9.70738 8.68418 10.2359 8.62813 10.8045 8.64812C10.8255 8.64871 10.8553 8.6489 10.8924 8.64921C11.8229 8.65554 12.066 8.8345 12.106 8.98347L19.9222 33.0089C19.9461 33.0815 19.9557 33.1589 19.9471 33.235C19.8277 34.3049 19.2032 35.1162 18.1336 35.5872L18.0617 35.6186Z" fill="#423F5A"/>
<path d="M3.81464 9.18852C4.55662 8.77723 8.56513 7.43889 9.68724 7.57301C9.58335 7.15245 8.85306 5.15862 8.85784 5.15656L10.2773 4.51757L11.3395 4.58738C11.3321 4.55707 11.326 4.52644 11.3202 4.49572C11.3178 4.48271 11.3157 4.46983 11.3135 4.45674C11.3093 4.42904 11.3053 4.40147 11.3025 4.37335C11.3006 4.3545 11.2997 4.33541 11.2985 4.3165C11.2971 4.292 11.295 4.26778 11.2947 4.24305C11.2944 4.20109 11.2963 4.15916 11.3003 4.11706C11.3019 4.10064 11.3051 4.08421 11.3074 4.06773C11.3116 4.03738 11.317 4.007 11.3238 3.97649C11.3275 3.95939 11.3323 3.94255 11.3369 3.92579C11.3457 3.89419 11.3564 3.863 11.3685 3.83219C11.374 3.81751 11.3793 3.80272 11.3859 3.78831C11.4057 3.74336 11.4283 3.69867 11.4559 3.65478C11.5053 3.57668 11.512 3.47902 11.4755 3.39427L11.107 2.53765C11.0902 2.4986 11.0604 2.46711 11.0224 2.44851L9.94907 1.91922C9.8356 1.86317 9.70406 1.85552 9.58512 1.89832L1.8285 4.67789C1.69581 4.72537 1.6307 4.87499 1.68637 5.0044L2.51613 6.93304L2.91591 6.77458C2.91591 6.77458 3.81156 9.17335 3.81464 9.18852Z" fill="#423F5A"/>
<path d="M3.04877 5.06601C3.04877 5.06601 3.63819 6.24092 3.75261 7.25585C3.86734 8.2709 4.27101 8.98145 4.27101 8.98145L4.57076 8.86283C4.57076 8.86283 3.9678 7.62557 4.04989 7.19786C4.13196 6.77066 3.28494 4.96441 3.28494 4.96441L2.90406 4.37206L3.04877 5.06601Z" fill="#1D1A3A"/>
<path d="M3.61903 4.83344C3.61903 4.83344 4.21738 6.02911 4.3389 7.05995C4.46011 8.09067 4.86971 8.81442 4.86971 8.81442L5.16955 8.69601C5.16955 8.69601 4.55694 7.43631 4.63671 7.00321C4.71609 6.56978 3.8555 4.73195 3.8555 4.73195L3.46979 4.12838L3.61903 4.83344Z" fill="#1D1A3A"/>
<path d="M4.18405 4.5917C4.18405 4.5917 4.78241 5.78737 4.90392 6.81821C5.02535 7.84884 5.43453 8.57278 5.43453 8.57278L5.73437 8.45436C5.73437 8.45436 5.12176 7.19466 5.20153 6.76156C5.28112 6.32804 4.42052 4.49021 4.42052 4.49021L4.03482 3.88664L4.18405 4.5917Z" fill="#1D1A3A"/>
<path d="M4.78159 4.42131C4.78159 4.42131 5.38656 5.63235 5.5129 6.67441C5.63912 7.71676 6.05244 8.44974 6.05244 8.44974L6.35237 8.33154C6.35237 8.33154 5.73297 7.05605 5.81065 6.61868C5.88855 6.18121 5.01785 4.31991 5.01785 4.31991L4.62866 3.70824L4.78159 4.42131Z" fill="#1D1A3A"/>
<path d="M5.37147 4.23549C5.37147 4.23549 5.96875 5.42867 6.0892 6.45701C6.20943 7.48545 6.61811 8.20763 6.61811 8.20763L6.91786 8.08901C6.91786 8.08901 6.30659 6.83243 6.38672 6.40015C6.46675 5.96767 5.60764 4.13388 5.60764 4.13388L5.22265 3.53197L5.37147 4.23549Z" fill="#1D1A3A"/>
<path d="M5.94238 4.00513C5.94238 4.00513 6.55029 5.22303 6.67878 6.27007C6.80706 7.3172 7.22226 8.05454 7.22226 8.05454L7.52218 7.93633C7.52218 7.93633 6.89966 6.65358 6.97675 6.21425C7.05371 5.77521 6.17855 3.90352 6.17855 3.90352L5.78784 3.28832L5.94238 4.00513Z" fill="#1D1A3A"/>
<path d="M6.51295 3.7734C6.51295 3.7734 7.13052 5.01373 7.26633 6.07781C7.40205 7.14167 7.82333 7.89314 7.82333 7.89314L8.12335 7.77514C8.12335 7.77514 7.49054 6.4685 7.56483 6.02323C7.63933 5.57787 6.74921 3.672 6.74921 3.672L6.35332 3.04475L6.51295 3.7734Z" fill="#1D1A3A"/>
<path d="M7.12413 3.636C7.12413 3.636 7.74357 4.88069 7.88055 5.94747C8.01761 7.01445 8.43996 7.76841 8.43996 7.76841L8.73998 7.65041C8.73998 7.65041 8.10539 6.33962 8.17935 5.89301C8.25331 5.44641 7.36042 3.53409 7.36042 3.53409L6.96363 2.90477L7.12413 3.636Z" fill="#1D1A3A"/>
<path d="M7.69978 3.41824C7.69978 3.41824 8.33859 4.70852 8.49022 5.80936C8.64195 6.9104 9.07615 7.6925 9.07615 7.6925L9.37655 7.57482C9.37655 7.57482 8.72141 6.21625 8.7898 5.75728C8.85831 5.298 7.93596 3.31664 7.93596 3.31664L7.52871 2.66301L7.69978 3.41824Z" fill="#1D1A3A"/>
<path d="M9.90935 7.89576C9.8703 7.91256 9.82782 7.91853 9.78597 7.91339C8.81989 7.79805 5.40622 8.86202 4.06666 9.43834C3.93248 9.49607 3.83023 9.54449 3.76264 9.58194L3.74096 9.59274C3.67864 9.61955 3.60759 9.61861 3.54591 9.59026C3.48542 9.56237 3.43882 9.50956 3.41809 9.44536C3.39514 9.37942 2.9499 8.18433 2.56362 7.14974L2.37082 7.22628C2.24945 7.27432 2.11413 7.21783 2.06265 7.09818L1.19116 5.07254C1.08321 4.82162 1.19954 4.52959 1.45047 4.42163L1.47774 4.41064L9.62612 1.49059C9.81154 1.42435 10.0187 1.43615 10.1951 1.52346L11.3223 2.07905C11.4131 2.12417 11.4852 2.20023 11.5252 2.29308L11.9123 3.1929C11.9821 3.35513 11.9678 3.54048 11.8743 3.68877C11.8541 3.72084 11.836 3.75545 11.8173 3.79824L11.8037 3.83362C11.7931 3.86006 11.7847 3.8851 11.7778 3.91023C11.7739 3.92449 11.7698 3.93854 11.7666 3.95223C11.7607 3.97813 11.7567 4.00302 11.7531 4.02844L11.7461 4.07402C11.7434 4.10497 11.7418 4.14134 11.7419 4.1775C11.7422 4.1914 11.7432 4.20624 11.7446 4.22091L11.7459 4.24125C11.747 4.26369 11.7475 4.27699 11.7491 4.28985C11.7517 4.31654 11.7556 4.34147 11.7592 4.3665L11.7652 4.40108C11.7704 4.42862 11.7757 4.45688 11.7824 4.48452C11.8002 4.55857 11.7816 4.63722 11.7329 4.69489C11.6841 4.75256 11.6087 4.7845 11.5339 4.77949L10.478 4.70995L9.24167 5.26647L9.29074 5.4034C9.52542 6.05815 9.9621 7.27685 10.0466 7.61911C10.0655 7.69566 10.0455 7.77615 9.99347 7.83495C9.97091 7.8609 9.94216 7.88164 9.90935 7.89576ZM4.00551 9.29676C5.35795 8.71491 8.81465 7.64227 9.80479 7.7603C9.83205 7.76359 9.85995 7.75233 9.87842 7.73232C9.89703 7.71151 9.90385 7.68273 9.89731 7.65551C9.81472 7.32106 9.37979 6.10702 9.14597 5.45485L9.04901 5.18369L10.4504 4.55319L11.5448 4.62514C11.5717 4.62709 11.5979 4.61583 11.6158 4.59508C11.6327 4.57478 11.6394 4.5468 11.6331 4.52071C11.6258 4.49061 11.6198 4.45968 11.614 4.42825L11.6076 4.39111C11.6031 4.36229 11.5993 4.33462 11.5964 4.30609C11.5947 4.29131 11.5937 4.27596 11.5925 4.25016L11.5913 4.23146C11.59 4.21456 11.5887 4.19616 11.5885 4.17852C11.588 4.13686 11.5902 4.09556 11.594 4.05526L11.6011 4.00593C11.6053 3.9768 11.6102 3.9469 11.617 3.91761C11.6203 3.90169 11.6249 3.88544 11.6299 3.86801C11.6385 3.8375 11.6487 3.8075 11.6605 3.77779L11.6605 3.7783L11.6759 3.73867C11.6997 3.68462 11.7212 3.64362 11.7451 3.606C11.8114 3.50091 11.8214 3.36889 11.7717 3.2534L11.3845 2.35358C11.359 2.29417 11.313 2.24575 11.2549 2.21709L10.1277 1.6615C9.98886 1.59275 9.82518 1.58366 9.67897 1.63573L1.51222 4.56344C1.3396 4.6377 1.25948 4.83883 1.33374 5.01144L2.20532 7.03729C2.22364 7.07987 2.27192 7.09997 2.31483 7.08298L2.6541 6.94809L2.68167 7.0219C2.82372 7.40241 3.5336 9.30532 3.56553 9.3967C3.57343 9.42136 3.58988 9.44013 3.61139 9.45008C3.63329 9.46035 3.6585 9.46058 3.68072 9.45102C3.7597 9.40744 3.86675 9.35646 4.00551 9.29676Z" fill="#1D1A3A"/>
<path d="M16.4553 30.1461C16.2555 29.9482 15.9952 30.0412 15.7536 30.1125C15.5852 30.1622 15.4169 30.2115 15.2486 30.2615C14.8347 30.3837 14.4209 30.5063 14.0074 30.6301C13.8153 30.6876 13.5708 30.7222 13.3935 30.8194C13.2681 30.8884 13.2131 31.022 13.2189 31.1562C13.2087 31.2218 13.6171 32.4697 14.0423 32.6176C14.5022 32.7774 16.4903 32.4051 16.8884 32.1139C17.1948 31.8895 17.0436 31.3892 16.941 31.0993C16.8287 30.7822 16.7038 30.4215 16.4749 30.1669C16.4685 30.1596 16.4619 30.1523 16.4553 30.1461Z" fill="#EB5E69"/>
<path d="M16.6504 32.0674C16.0133 32.3415 14.4358 32.5909 14.0931 32.4717C13.7912 32.3668 13.4046 31.337 13.3732 31.1526C13.3733 31.1516 13.3732 31.1509 13.3732 31.1497C13.3711 31.1077 13.3769 31.0045 13.4678 30.9548C13.4861 30.9453 13.5049 30.9362 13.5242 30.9279C13.6205 30.8864 13.7385 30.8578 13.8526 30.8302C13.9219 30.8134 13.9896 30.7968 14.0521 30.7783C14.4653 30.6544 14.8789 30.5321 15.2926 30.41L15.8382 30.2489C16.0769 30.1777 16.2291 30.1396 16.347 30.2562L16.3607 30.2705C16.565 30.4975 16.6844 30.8353 16.7899 31.1335L16.796 31.1506C16.8973 31.4371 17.0078 31.8356 16.7978 31.9897C16.7756 32.0054 16.7324 32.0321 16.6504 32.0674Z" fill="#E84B58"/>
<path d="M15.3999 32.1922C15.3371 32.2192 15.2695 32.2382 15.1977 32.2474C15.0121 32.2716 14.829 32.2283 14.6818 32.1257C14.5323 32.0214 14.4377 31.8691 14.4152 31.6961C14.3693 31.3422 14.6452 31.0131 15.0303 30.9631C15.2159 30.9389 15.3989 30.982 15.5464 31.0847C15.6958 31.1888 15.7907 31.3412 15.8132 31.5142C15.8503 31.8025 15.6745 32.0741 15.3999 32.1922ZM14.8863 31.1553C14.6717 31.2476 14.5338 31.4563 14.5627 31.6773C14.5796 31.8081 14.6521 31.9241 14.7671 32.0041C14.8837 32.0854 15.0299 32.1195 15.1786 32.1001C15.4818 32.0605 15.701 31.8066 15.6655 31.5336C15.6484 31.4029 15.5758 31.2869 15.4611 31.2068C15.3444 31.1255 15.1982 31.0912 15.0495 31.1106C14.9917 31.1183 14.937 31.1334 14.8863 31.1553Z" fill="#EB5E69"/>
<path d="M14.7187 30.8188C14.7953 31.0379 14.872 31.2575 14.9486 31.4761C14.9812 31.5701 15.1217 31.506 15.0891 31.4124C15.0126 31.1935 14.936 30.9742 14.8594 30.755C14.8268 30.6615 14.6863 30.7257 14.7187 30.8188Z" fill="#EB5E69"/>
</svg>
