<svg width="26" height="26" viewBox="0 0 26 26" fill="none" xmlns="http://www.w3.org/2000/svg">
<path d="M13 0.550781C6.125 0.550781 0.5 6.16328 0.5 13.0758C0.5 19.3258 5.075 24.5133 11.05 25.4508V16.7008H7.875V13.0758H11.05V10.3133C11.05 7.17578 12.9125 5.45078 15.775 5.45078C17.1375 5.45078 18.5625 5.68828 18.5625 5.68828V8.77578H16.9875C15.4375 8.77578 14.95 9.73828 14.95 10.7258V13.0758H18.425L17.8625 16.7008H14.95V25.4508C17.8955 24.9856 20.5778 23.4827 22.5124 21.2133C24.447 18.9441 25.5068 16.0578 25.5 13.0758C25.5 6.16328 19.875 0.550781 13 0.550781Z" fill="#6828B0"/>
</svg>
