<svg width="26" height="26" viewBox="0 0 26 26" fill="none" xmlns="http://www.w3.org/2000/svg">
<path d="M18.2375 0.5H7.7625C3.2125 0.5 0.5 3.2125 0.5 7.7625V18.225C0.5 22.7875 3.2125 25.5 7.7625 25.5H18.225C22.775 25.5 25.4875 22.7875 25.4875 18.2375V7.7625C25.5 3.2125 22.7875 0.5 18.2375 0.5ZM13 17.85C10.325 17.85 8.15 15.675 8.15 13C8.15 10.325 10.325 8.15 13 8.15C15.675 8.15 17.85 10.325 17.85 13C17.85 15.675 15.675 17.85 13 17.85ZM20.4 6.6C20.3375 6.75 20.25 6.8875 20.1375 7.0125C20.0125 7.125 19.875 7.2125 19.725 7.275C19.575 7.3375 19.4125 7.375 19.25 7.375C18.9125 7.375 18.6 7.25 18.3625 7.0125C18.25 6.8875 18.1625 6.75 18.1 6.6C18.0375 6.45 18 6.2875 18 6.125C18 5.9625 18.0375 5.8 18.1 5.65C18.1625 5.4875 18.25 5.3625 18.3625 5.2375C18.65 4.95 19.0875 4.8125 19.4875 4.9C19.575 4.9125 19.65 4.9375 19.725 4.975C19.8 5 19.875 5.0375 19.95 5.0875C20.0125 5.125 20.075 5.1875 20.1375 5.2375C20.25 5.3625 20.3375 5.4875 20.4 5.65C20.4625 5.8 20.5 5.9625 20.5 6.125C20.5 6.2875 20.4625 6.45 20.4 6.6Z" fill="#6828B0"/>
</svg>
