<svg width="23" height="26" viewBox="0 0 23 26" fill="none" xmlns="http://www.w3.org/2000/svg">
<path d="M12.1948 0.962005C13.5596 0.941162 14.9144 0.952001 16.2684 0.941162C16.3134 2.63445 17.0004 4.1585 18.0934 5.28736L18.0917 5.28569C19.2681 6.34535 20.7988 7.03234 22.4863 7.14906L22.5096 7.15073V11.3494C20.9156 11.3093 19.4165 10.9417 18.0651 10.3097L18.1334 10.338C17.4798 10.0237 16.927 9.70108 16.4018 9.34092L16.4451 9.36926C16.4351 12.4115 16.4551 15.4538 16.4243 18.4852C16.3384 20.0301 15.8248 21.4391 15.0011 22.6154L15.0178 22.5896C13.6405 24.5622 11.4095 25.857 8.87243 25.9337H8.86076C8.75821 25.9387 8.63733 25.9412 8.5156 25.9412C7.07326 25.9412 5.72513 25.5393 4.57626 24.8415L4.60961 24.8607C2.51864 23.6026 1.0763 21.4499 0.809506 18.9462L0.806171 18.912C0.785328 18.391 0.775323 17.8699 0.796166 17.3597C1.20469 13.3753 4.54291 10.293 8.60064 10.293C9.05669 10.293 9.50356 10.3322 9.93793 10.4064L9.89124 10.3997C9.91209 11.9413 9.84956 13.4837 9.84956 15.0252C9.49689 14.8977 9.09004 14.8235 8.66567 14.8235C7.10828 14.8235 5.78349 15.8189 5.29327 17.2088L5.28576 17.2338C5.17488 17.5898 5.11068 17.9991 5.11068 18.4227C5.11068 18.5944 5.12152 18.7645 5.14153 18.9312L5.13986 18.9112C5.41666 20.617 6.879 21.9043 8.64233 21.9043C8.69318 21.9043 8.74321 21.9034 8.79323 21.9009H8.78573C10.0055 21.8643 11.0643 21.2081 11.6629 20.2385L11.6712 20.2235C11.8938 19.9133 12.0464 19.5382 12.0973 19.1305L12.0981 19.1188C12.2023 17.2538 12.1606 15.3996 12.1706 13.5345C12.1806 9.33591 12.1606 5.14729 12.1915 0.959504L12.1948 0.962005Z" fill="#6828B0"/>
</svg>
